<svg xmlns="http://www.w3.org/2000/svg" width="1600" height="900" viewBox="0 0 1600 900" fill="none">
  <rect width="1600" height="900" rx="36" fill="#08111F"/>
  <rect x="36" y="36" width="1528" height="828" rx="28" fill="#0F172A" stroke="#334155"/>

  <defs>
    <linearGradient id="dataGlow" x1="220" y1="180" x2="1380" y2="720" gradientUnits="userSpaceOnUse">
      <stop stop-color="#38BDF8"/>
      <stop offset="0.55" stop-color="#22C55E"/>
      <stop offset="1" stop-color="#F59E0B"/>
    </linearGradient>
  </defs>

  <rect x="96" y="102" width="164" height="38" rx="19" fill="#11233A" stroke="#38BDF8"/>
  <text x="126" y="128" fill="#BAE6FD" font-family="Inter, Arial, sans-serif" font-size="20" font-weight="700">Video Generation</text>

  <text x="96" y="236" fill="#F8FAFC" font-family="Inter, Arial, sans-serif" font-size="60" font-weight="800">视频生成的数据引擎</text>
  <text x="96" y="312" fill="#CBD5E1" font-family="Inter, Arial, sans-serif" font-size="34" font-weight="600">过滤、重采样、字幕与镜头控制</text>
  <text x="96" y="384" fill="#94A3B8" font-family="Inter, Arial, sans-serif" font-size="24">为什么视频模型真正学到什么，往往先由数据决定</text>

  <rect x="96" y="470" width="322" height="112" rx="24" fill="#102132" stroke="#38BDF8"/>
  <text x="128" y="516" fill="#E0F2FE" font-family="Inter, Arial, sans-serif" font-size="28" font-weight="700">质量过滤</text>
  <text x="128" y="556" fill="#BAE6FD" font-family="Inter, Arial, sans-serif" font-size="22">分辨率 / OCR / 美学 / 画质</text>

  <rect x="96" y="616" width="322" height="112" rx="24" fill="#152416" stroke="#4ADE80"/>
  <text x="128" y="662" fill="#DCFCE7" font-family="Inter, Arial, sans-serif" font-size="28" font-weight="700">分布重组</text>
  <text x="128" y="702" fill="#BBF7D0" font-family="Inter, Arial, sans-serif" font-size="22">去重 / 聚类 / 概念均衡 / 重采样</text>

  <rect x="1180" y="204" width="280" height="112" rx="24" fill="#291C10" stroke="#F59E0B"/>
  <text x="1212" y="250" fill="#FEF3C7" font-family="Inter, Arial, sans-serif" font-size="28" font-weight="700">条件构造</text>
  <text x="1212" y="290" fill="#FDE68A" font-family="Inter, Arial, sans-serif" font-size="22">caption / JSON 字段 / camera tags</text>

  <rect x="1180" y="350" width="280" height="112" rx="24" fill="#1D1631" stroke="#A78BFA"/>
  <text x="1212" y="396" fill="#EDE9FE" font-family="Inter, Arial, sans-serif" font-size="28" font-weight="700">监督接口</text>
  <text x="1212" y="436" fill="#DDD6FE" font-family="Inter, Arial, sans-serif" font-size="22">让模型学会“生成什么”与“如何拍”</text>

  <circle cx="800" cy="470" r="150" fill="#0B1220" stroke="url(#dataGlow)" stroke-width="10"/>
  <text x="706" y="452" fill="#F8FAFC" font-family="Inter, Arial, sans-serif" font-size="34" font-weight="800">Data</text>
  <text x="682" y="494" fill="#CBD5E1" font-family="Inter, Arial, sans-serif" font-size="26">Engine for Video</text>

  <path d="M418 526 C 520 520, 588 508, 650 490" stroke="#38BDF8" stroke-width="8" stroke-linecap="round"/>
  <path d="M418 672 C 534 640, 600 590, 664 534" stroke="#4ADE80" stroke-width="8" stroke-linecap="round"/>
  <path d="M1180 260 C 1088 282, 1024 322, 946 396" stroke="#F59E0B" stroke-width="8" stroke-linecap="round"/>
  <path d="M1180 406 C 1080 422, 1008 438, 948 452" stroke="#A78BFA" stroke-width="8" stroke-linecap="round"/>

  <text x="96" y="806" fill="#64748B" font-family="Inter, Arial, sans-serif" font-size="20">Movie Gen · Hunyuan Video · Data pipeline notes</text>
</svg>
