<svg width="1200" height="860" viewBox="0 0 1200 860" fill="none" xmlns="http://www.w3.org/2000/svg">
  <defs>
    <style>
      .box { fill: white; stroke: #111827; stroke-width: 2; }
      .label { font: 700 18px Arial, sans-serif; fill: #111827; }
      .text { font: 16px Arial, sans-serif; fill: #111827; }
      .small { font: 14px Arial, sans-serif; fill: #374151; }
      .arrow { stroke: #111827; stroke-width: 2.5; fill: none; marker-end: url(#arrowhead); }
    </style>
    <marker id="arrowhead" markerWidth="10" markerHeight="8" refX="9" refY="4" orient="auto">
      <path d="M0 0L10 4L0 8Z" fill="#111827" />
    </marker>
  </defs>

  <rect width="1200" height="860" fill="#FAFAFA" />

  <rect x="40" y="20" width="360" height="700" class="box" />
  <text x="55" y="55" class="label">CSPDarknet53</text>

  <rect x="60" y="95" width="320" height="40" class="box" />
  <text x="220" y="120" text-anchor="middle" class="text">Inputs (416, 416, 3)</text>

  <path d="M220 135V170" class="arrow" />
  <rect x="60" y="170" width="320" height="40" class="box" />
  <text x="220" y="195" text-anchor="middle" class="text">DarknetConv2D_BN_Mish (416, 416, 32)</text>

  <path d="M220 210V245" class="arrow" />
  <rect x="60" y="245" width="320" height="40" class="box" />
  <text x="220" y="270" text-anchor="middle" class="text">Resblock_body (208, 208, 64) ×1</text>

  <path d="M220 285V320" class="arrow" />
  <rect x="60" y="320" width="320" height="40" class="box" />
  <text x="220" y="345" text-anchor="middle" class="text">Resblock_body (104, 104, 128) ×2</text>

  <path d="M220 360V395" class="arrow" />
  <rect x="60" y="395" width="320" height="40" class="box" />
  <text x="220" y="420" text-anchor="middle" class="text">Resblock_body (52, 52, 256) ×8</text>

  <path d="M220 435V470" class="arrow" />
  <rect x="60" y="470" width="320" height="40" class="box" />
  <text x="220" y="495" text-anchor="middle" class="text">Resblock_body (26, 26, 512) ×8</text>

  <path d="M220 510V545" class="arrow" />
  <rect x="60" y="545" width="320" height="40" class="box" />
  <text x="220" y="570" text-anchor="middle" class="text">Resblock_body (13, 13, 1024) ×4</text>

  <path d="M220 585V630" class="arrow" />
  <rect x="125" y="630" width="190" height="42" class="box" />
  <text x="220" y="656" text-anchor="middle" class="text">Conv ×3</text>

  <rect x="20" y="690" width="410" height="135" class="box" />
  <text x="40" y="728" class="label">SPP</text>
  <path d="M220 672V730" class="arrow" />
  <rect x="65" y="760" width="75" height="42" class="box" />
  <rect x="165" y="760" width="75" height="42" class="box" />
  <rect x="265" y="760" width="75" height="42" class="box" />
  <text x="102.5" y="787" text-anchor="middle" class="text">5</text>
  <text x="202.5" y="787" text-anchor="middle" class="text">9</text>
  <text x="302.5" y="787" text-anchor="middle" class="text">13</text>
  <text x="377" y="787" class="small">最大池化</text>

  <path d="M220 730V748" class="arrow" />
  <path d="M220 748H102.5V760" class="arrow" />
  <path d="M220 748H202.5V760" class="arrow" />
  <path d="M220 748H302.5V760" class="arrow" />

  <path d="M102.5 802V820H220" class="arrow" />
  <path d="M202.5 802V820H220" class="arrow" />
  <path d="M302.5 802V820H220" class="arrow" />
  <rect x="125" y="800" width="190" height="42" class="box" />
  <text x="220" y="826" text-anchor="middle" class="text">Concat + Conv ×3</text>

  <rect x="455" y="150" width="500" height="570" class="box" />
  <text x="475" y="190" class="label">PANet</text>

  <path d="M380 415H455" class="arrow" />
  <path d="M380 490H455" class="arrow" />
  <text x="410" y="405" class="small">Conv</text>
  <text x="410" y="480" class="small">Conv</text>

  <rect x="500" y="235" width="200" height="48" class="box" />
  <text x="600" y="264" text-anchor="middle" class="text">Concat + Conv ×5</text>

  <rect x="530" y="290" width="140" height="32" class="box" />
  <text x="600" y="311" text-anchor="middle" class="small">Conv + UpSampling</text>

  <rect x="500" y="355" width="200" height="48" class="box" />
  <text x="600" y="384" text-anchor="middle" class="text">Concat + Conv ×5</text>

  <rect x="530" y="410" width="140" height="32" class="box" />
  <text x="600" y="431" text-anchor="middle" class="small">Conv + UpSampling</text>

  <rect x="770" y="355" width="150" height="48" class="box" />
  <text x="845" y="384" text-anchor="middle" class="text">Concat + Conv ×5</text>
  <rect x="790" y="315" width="110" height="28" class="box" />
  <text x="845" y="334" text-anchor="middle" class="small">Downsampling</text>

  <rect x="740" y="595" width="180" height="48" class="box" />
  <text x="830" y="624" text-anchor="middle" class="text">Concat + Conv ×5</text>
  <rect x="780" y="555" width="100" height="28" class="box" />
  <text x="830" y="574" text-anchor="middle" class="small">Downsampling</text>

  <path d="M700 259H990" class="arrow" />
  <path d="M700 379H770" class="arrow" />
  <path d="M920 379H990" class="arrow" />
  <path d="M315 821H740" class="arrow" />
  <path d="M920 619H990" class="arrow" />
  <path d="M600 322V355" class="arrow" />
  <path d="M600 442V595" class="arrow" />
  <path d="M845 343V355" class="arrow" />
  <path d="M830 583V595" class="arrow" />
  <path d="M790 619V403" class="arrow" />
  <path d="M600 442L500 595" class="arrow" />

  <rect x="990" y="230" width="190" height="52" class="box" />
  <rect x="990" y="350" width="190" height="52" class="box" />
  <rect x="990" y="590" width="190" height="52" class="box" />
  <text x="1085" y="262" text-anchor="middle" class="text">Yolo Head</text>
  <text x="1085" y="382" text-anchor="middle" class="text">Yolo Head</text>
  <text x="1085" y="622" text-anchor="middle" class="text">Yolo Head</text>
</svg>
