<svg xmlns="http://www.w3.org/2000/svg" width="960" height="860" viewBox="0 0 960 860" fill="none">
  <defs>
    <marker id="arrow" viewBox="0 0 10 10" refX="8" refY="5" markerWidth="8" markerHeight="8" orient="auto-start-reverse">
      <path d="M0 0L10 5L0 10Z" fill="#3A5FA0"/>
    </marker>
    <style>
      .label { font-family: "Times New Roman", serif; fill: #111827; }
      .formula { font-family: "Times New Roman", serif; fill: #F8FAFC; font-style: italic; }
      .ui { font-family: Arial, sans-serif; fill: #111827; }
    </style>
  </defs>

  <rect width="960" height="860" fill="#E5E7EB"/>

  <text x="210" y="104" class="label" font-size="54">h</text>
  <rect x="320" y="62" width="320" height="42" fill="#F2C84B" stroke="#111827" stroke-width="2"/>

  <rect x="32" y="238" width="360" height="430" fill="#4B8CC8" stroke="#111827" stroke-width="2"/>
  <text x="212" y="380" text-anchor="middle" class="ui" font-size="52" font-weight="700" fill="#FFFFFF">Pretrained</text>
  <text x="212" y="444" text-anchor="middle" class="ui" font-size="52" font-weight="700" fill="#FFFFFF">Weights</text>
  <text x="212" y="548" text-anchor="middle" class="formula" font-size="58">W in R^{d x d}</text>

  <polygon points="530,238 890,238 760,370 660,370" fill="#ED7A2F" stroke="#111827" stroke-width="2"/>
  <text x="710" y="316" text-anchor="middle" class="formula" font-size="52">B = 0</text>

  <line x1="642" y1="402" x2="778" y2="402" stroke="#1E3A8A" stroke-width="2"/>
  <line x1="642" y1="402" x2="642" y2="418" stroke="#1E3A8A" stroke-width="2"/>
  <line x1="778" y1="402" x2="778" y2="418" stroke="#1E3A8A" stroke-width="2"/>
  <text x="710" y="396" text-anchor="middle" class="label" font-size="48">r</text>

  <polygon points="660,440 760,440 890,572 530,572" fill="#ED7A2F" stroke="#111827" stroke-width="2"/>
  <text x="710" y="534" text-anchor="middle" class="formula" font-size="46">A ~ N(0, sigma^2)</text>

  <text x="206" y="754" class="label" font-size="54">x</text>
  <rect x="320" y="706" width="320" height="42" fill="#F2C84B" stroke="#111827" stroke-width="2"/>

  <line x1="320" y1="684" x2="640" y2="684" stroke="#1E3A8A" stroke-width="2"/>
  <line x1="320" y1="684" x2="320" y2="700" stroke="#1E3A8A" stroke-width="2"/>
  <line x1="640" y1="684" x2="640" y2="700" stroke="#1E3A8A" stroke-width="2"/>
  <text x="480" y="678" text-anchor="middle" class="label" font-size="48">d</text>

  <line x1="262" y1="210" x2="356" y2="140" stroke="#3A5FA0" stroke-width="5" marker-end="url(#arrow)"/>
  <line x1="704" y1="210" x2="612" y2="140" stroke="#3A5FA0" stroke-width="5" marker-end="url(#arrow)"/>
  <line x1="356" y1="700" x2="262" y2="602" stroke="#3A5FA0" stroke-width="5" marker-end="url(#arrow)"/>
  <line x1="612" y1="700" x2="704" y2="602" stroke="#3A5FA0" stroke-width="5" marker-end="url(#arrow)"/>
</svg>
