<svg width="1200" height="630" viewBox="0 0 1200 630" fill="none" xmlns="http://www.w3.org/2000/svg">
  <defs>
    <linearGradient id="bg2" x1="0" y1="0" x2="1200" y2="630" gradientUnits="userSpaceOnUse">
      <stop stop-color="#0B1220"/>
      <stop offset="1" stop-color="#13243F"/>
    </linearGradient>
    <linearGradient id="frame2" x1="72" y1="72" x2="1128" y2="558" gradientUnits="userSpaceOnUse">
      <stop stop-color="#22D3EE"/>
      <stop offset="0.5" stop-color="#34D399"/>
      <stop offset="1" stop-color="#F59E0B"/>
    </linearGradient>
    <marker id="arrow2" markerWidth="10" markerHeight="10" refX="8" refY="3.5" orient="auto" markerUnits="strokeWidth">
      <path d="M0,0 L0,7 L8,3.5 z" fill="#93C5FD"/>
    </marker>
  </defs>

  <rect width="1200" height="630" rx="32" fill="url(#bg2)"/>
  <circle cx="1060" cy="90" r="130" fill="#22D3EE" fill-opacity="0.16"/>
  <circle cx="140" cy="545" r="165" fill="#34D399" fill-opacity="0.12"/>
  <rect x="72" y="72" width="1056" height="486" rx="28" stroke="url(#frame2)" stroke-width="2"/>

  <text x="96" y="132" fill="#A5F3FC" font-size="27" font-family="Arial, sans-serif">Pokemon-data · SFT Training</text>
  <text x="96" y="226" fill="#F8FAFC" font-size="56" font-weight="700" font-family="Arial, sans-serif">QLoRA + Modal 训练实战</text>
  <text x="96" y="282" fill="#C7D2FE" font-size="26" font-family="Arial, sans-serif">Smoke → Train → Monitor → Export Adapter</text>

  <rect x="96" y="338" width="190" height="92" rx="14" fill="#0F172A" stroke="#334155"/>
  <text x="191" y="374" text-anchor="middle" fill="#E2E8F0" font-size="24" font-weight="700" font-family="Arial, sans-serif">Smoke</text>
  <text x="191" y="404" text-anchor="middle" fill="#93C5FD" font-size="16" font-family="Arial, sans-serif">10-step check</text>

  <rect x="318" y="338" width="190" height="92" rx="14" fill="#0F172A" stroke="#334155"/>
  <text x="413" y="374" text-anchor="middle" fill="#E2E8F0" font-size="24" font-weight="700" font-family="Arial, sans-serif">Train</text>
  <text x="413" y="404" text-anchor="middle" fill="#86EFAC" font-size="16" font-family="Arial, sans-serif">A100 + QLoRA</text>

  <rect x="540" y="338" width="190" height="92" rx="14" fill="#0F172A" stroke="#334155"/>
  <text x="635" y="374" text-anchor="middle" fill="#E2E8F0" font-size="24" font-weight="700" font-family="Arial, sans-serif">Monitor</text>
  <text x="635" y="404" text-anchor="middle" fill="#C4B5FD" font-size="16" font-family="Arial, sans-serif">modal app logs</text>

  <rect x="762" y="338" width="342" height="92" rx="14" fill="#0F172A" stroke="#334155"/>
  <text x="933" y="374" text-anchor="middle" fill="#E2E8F0" font-size="24" font-weight="700" font-family="Arial, sans-serif">Adapter + Metrics</text>
  <text x="933" y="404" text-anchor="middle" fill="#FCD34D" font-size="16" font-family="Arial, sans-serif">volume get / outputs</text>

  <line x1="286" y1="384" x2="314" y2="384" stroke="#93C5FD" stroke-width="3" marker-end="url(#arrow2)"/>
  <line x1="508" y1="384" x2="536" y2="384" stroke="#93C5FD" stroke-width="3" marker-end="url(#arrow2)"/>
  <line x1="730" y1="384" x2="758" y2="384" stroke="#93C5FD" stroke-width="3" marker-end="url(#arrow2)"/>

  <text x="96" y="532" fill="#64748B" font-size="23" font-family="Arial, sans-serif">Yunshen Blog · Qwen2.5-7B-Instruct Fine-tuning</text>
</svg>
